<svg width="7" height="6" viewBox="0 0 7 6" fill="none" xmlns="http://www.w3.org/2000/svg">
<path d="M3.52479 1.14566C3.55428 1.16978 3.68013 1.26054 3.78385 1.34537C4.43543 1.84179 5.51187 3.14931 5.84626 3.83825C5.89987 3.94283 6.0142 4.20763 6.02406 4.35014C6.0268 4.48683 5.99342 4.61786 5.92293 4.74366C5.82406 4.90071 5.66609 5.02827 5.47799 5.1002C5.3474 5.1467 4.95534 5.22272 4.94834 5.22286C4.5193 5.29963 3.82069 5.35113 3.04785 5.36663C2.31149 5.3814 1.63988 5.35739 1.20185 5.31037C1.19472 5.30412 0.704451 5.2458 0.53549 5.17464C0.226809 5.04408 0.0314924 4.7809 0.0257609 4.49517L0.0252655 4.47047C0.0290315 4.28424 0.211144 3.88909 0.218142 3.88895C0.525881 3.22461 1.49815 1.90667 2.15105 1.37173C2.15105 1.37173 2.31857 1.2214 2.42376 1.15539C2.57473 1.05268 2.76321 0.999483 2.95267 0.995683C3.16412 0.991441 3.3622 1.04327 3.52479 1.14566Z" fill="#06152B"/>
</svg>
