<svg width="10" height="8" viewBox="0 0 10 8" fill="none" xmlns="http://www.w3.org/2000/svg">
<g opacity="0.7">
<path d="M3.90058 6.74621C3.85412 6.70663 3.65545 6.55718 3.49202 6.41797C2.4642 5.60182 0.781879 3.47273 0.26837 2.35837C0.185857 2.18914 0.0112155 1.76127 0 1.53267C0 1.31362 0.0576796 1.10481 0.174641 0.905545C0.338067 0.657151 0.595222 0.45789 0.898841 0.348706C1.10953 0.278419 1.74 0.169235 1.75122 0.169235C2.44097 0.0600512 3.56172 0 4.80023 0C5.98025 0 7.05534 0.0600512 7.7555 0.149446C7.76672 0.159682 8.5502 0.268866 8.81857 0.388286C9.30885 0.607336 9.61327 1.0352 9.61327 1.49309V1.53267C9.60125 1.83088 9.29683 2.45801 9.28562 2.45801C8.77131 3.51231 7.1715 5.59227 6.10843 6.42821C6.10843 6.42821 5.83525 6.66364 5.66462 6.766C5.41948 6.92568 5.11586 7.00484 4.81224 7.00484C4.47337 7.00484 4.15774 6.91544 3.90058 6.74621Z" fill="#94A3B8"/>
</g>
</svg>
