<svg width="6" height="6" viewBox="0 0 6 6" fill="none" xmlns="http://www.w3.org/2000/svg">
<g opacity="0.7">
<path d="M2.4345 5.20574C2.4055 5.18104 2.2815 5.08776 2.1795 5.00087C1.538 4.49149 0.488 3.16264 0.1675 2.46713C0.116 2.3615 0.007 2.09446 0 1.95178C0 1.81506 0.036 1.68473 0.109 1.56036C0.211 1.40533 0.3715 1.28096 0.561 1.21282C0.6925 1.16895 1.086 1.1008 1.093 1.1008C1.5235 1.03266 2.223 0.995178 2.996 0.995178C3.7325 0.995178 4.4035 1.03266 4.8405 1.08845C4.8475 1.09484 5.3365 1.16299 5.504 1.23752C5.81 1.37424 6 1.64129 6 1.92707V1.95178C5.9925 2.1379 5.8025 2.52931 5.7955 2.52931C5.4745 3.18734 4.476 4.48552 3.8125 5.00726C3.8125 5.00726 3.642 5.1542 3.5355 5.21809C3.3825 5.31775 3.193 5.36716 3.0035 5.36716C2.792 5.36716 2.595 5.31136 2.4345 5.20574Z" fill="#06152B"/>
</g>
</svg>
