<svg width="13" height="13" viewBox="0 0 13 13" fill="none" xmlns="http://www.w3.org/2000/svg">
<path fill-rule="evenodd" clip-rule="evenodd" d="M9.38762 1.1806L9.38831 1.63943C11.3166 1.77157 12.5903 2.92047 12.5924 4.68237L12.6 9.8396C12.6028 11.7606 11.2226 12.9425 9.01026 12.9456L3.60632 12.9517C1.40784 12.9541 0.0103716 11.744 0.00760708 9.81758L4.65482e-06 4.72092C-0.00275986 2.94739 1.22607 1.80154 3.15432 1.64677L3.15363 1.18794C3.15294 0.918759 3.38101 0.716263 3.68511 0.716263C3.9892 0.715651 4.21728 0.917536 4.21797 1.18671L4.21866 1.61495L8.32397 1.61006L8.32328 1.18182C8.32259 0.912642 8.55066 0.710757 8.85476 0.710145C9.15194 0.709534 9.38693 0.911418 9.38762 1.1806ZM1.06508 4.90997L11.5288 4.89774V4.68362C11.4991 3.36831 10.7443 2.67823 9.38973 2.57546L9.39042 3.04652C9.39042 3.30958 9.15613 3.51819 8.85894 3.51819C8.55485 3.51881 8.32608 3.3108 8.32608 3.04774L8.32539 2.55221L4.22008 2.5571L4.22077 3.05203C4.22077 3.3157 3.99339 3.5237 3.68929 3.5237C3.3852 3.52431 3.15643 3.31692 3.15643 3.05325L3.15574 2.58218C1.80804 2.70026 1.06231 3.39278 1.06438 4.71971L1.06508 4.90997ZM8.56798 7.69042V7.69715C8.57489 7.97856 8.83752 8.19207 9.15613 8.18595C9.46714 8.17922 9.71525 7.94614 9.70834 7.66472C9.69383 7.39554 9.44433 7.17592 9.13401 7.17653C8.81609 7.18265 8.56729 7.409 8.56798 7.69042ZM9.13889 10.4373C8.82097 10.4312 8.56456 10.1993 8.56387 9.91788C8.55695 9.63647 8.81198 9.40338 9.1299 9.39665H9.13681C9.46164 9.39665 9.72496 9.62851 9.72496 9.91605C9.72565 10.2036 9.46303 10.4367 9.13889 10.4373ZM5.72047 7.7003C5.7343 7.98171 5.99762 8.20134 6.31554 8.1891C6.62654 8.17625 6.87466 7.94378 6.86084 7.66237C6.85324 7.38707 6.59752 7.17295 6.28651 7.17356C5.96859 7.1858 5.71978 7.41888 5.72047 7.7003ZM6.31824 10.4098C6.00032 10.4221 5.73769 10.2024 5.72318 9.92101C5.72318 9.6396 5.9713 9.40713 6.28922 9.39428C6.60022 9.39367 6.85663 9.60779 6.86354 9.88247C6.87806 10.1645 6.62925 10.397 6.31824 10.4098ZM2.87297 7.72166C2.88679 8.00307 3.15011 8.22331 3.46803 8.21046C3.77904 8.19823 4.02716 7.96514 4.01264 7.68373C4.00573 7.40843 3.75001 7.19431 3.43831 7.19492C3.1204 7.20716 2.87228 7.44024 2.87297 7.72166ZM3.47099 10.4128C3.15307 10.4257 2.89044 10.2055 2.87593 9.92404C2.87524 9.64263 3.12405 9.40954 3.44197 9.39731C3.75297 9.3967 4.00938 9.61082 4.01629 9.88611C4.03081 10.1675 3.78269 10.4006 3.47099 10.4128Z" fill="#03A89E"/>
</svg>
