<svg width="18" height="18" viewBox="0 0 18 18" fill="none" xmlns="http://www.w3.org/2000/svg">
<g opacity="0.4">
<path fill-rule="evenodd" clip-rule="evenodd" d="M17.2872 2.83564C17.6763 2.83564 18.0001 3.11807 18.0001 3.47744V3.80971C18.0001 4.16034 17.6763 4.45151 17.2872 4.45151H0.713976C0.323982 4.45151 0.00012207 4.16034 0.00012207 3.80971V3.47744C0.00012207 3.11807 0.323982 2.83564 0.713976 2.83564H3.62969C4.22197 2.83564 4.73742 2.46752 4.87066 1.94814L5.02336 1.3518C5.26066 0.539497 6.04162 0 6.93539 0H11.0649C11.9489 0 12.7386 0.539497 12.9672 1.30896L13.1306 1.94726C13.2628 2.46752 13.7783 2.83564 14.3715 2.83564H17.2872ZM15.8059 14.9819C16.1103 12.5013 16.6432 6.60792 16.6432 6.54847C16.6627 6.36834 16.5956 6.19784 16.4623 6.06056C16.3194 5.93202 16.1385 5.85595 15.9391 5.85595H2.06855C1.8682 5.85595 1.67758 5.93202 1.54532 6.06056C1.4111 6.19784 1.34497 6.36834 1.35469 6.54847C1.35648 6.55939 1.37561 6.76698 1.40758 7.11404C1.54961 8.65581 1.94519 12.95 2.20082 14.9819C2.38171 16.4789 3.50501 17.4197 5.13209 17.4538C6.38765 17.4792 7.68115 17.4879 9.00382 17.4879C10.2497 17.4879 11.5149 17.4792 12.8094 17.4538C14.4929 17.4285 15.6152 16.5042 15.8059 14.9819Z" fill="#06152B"/>
</g>
</svg>
