<svg width="11" height="11" viewBox="0 0 11 11" fill="none" xmlns="http://www.w3.org/2000/svg">
<path fill-rule="evenodd" clip-rule="evenodd" d="M8.73644 2.8282C8.89994 2.8282 9.03605 2.9528 9.03605 3.11134V3.25793C9.03605 3.41262 8.89994 3.54108 8.73644 3.54108H1.77097C1.60706 3.54108 1.47095 3.41262 1.47095 3.25793V3.11134C1.47095 2.9528 1.60706 2.8282 1.77097 2.8282H2.99639C3.24532 2.8282 3.46196 2.66579 3.51796 2.43665L3.58213 2.17356C3.68186 1.81519 4.01009 1.57718 4.38573 1.57718H6.12127C6.49282 1.57718 6.82473 1.81519 6.92078 2.15466L6.98945 2.43626C7.04504 2.66579 7.26168 2.8282 7.51101 2.8282H8.73644ZM8.11388 8.18685C8.24181 7.09245 8.46581 4.49243 8.46581 4.4662C8.47398 4.38673 8.44578 4.31151 8.38978 4.25095C8.3297 4.19424 8.25367 4.16068 8.16988 4.16068H2.34031C2.25611 4.16068 2.176 4.19424 2.12041 4.25095C2.064 4.31151 2.03621 4.38673 2.04029 4.4662C2.04104 4.47102 2.04908 4.56261 2.06252 4.71572C2.12221 5.39592 2.28847 7.29039 2.3959 8.18685C2.47193 8.84727 2.94403 9.26234 3.62787 9.27739C4.15556 9.28857 4.6992 9.29243 5.25509 9.29243C5.7787 9.29243 6.31048 9.28857 6.85453 9.27739C7.56207 9.2662 8.03376 8.85845 8.11388 8.18685Z" fill="#FF69B4"/>
</svg>
