<svg width="9" height="8" viewBox="0 0 9 8" fill="none" xmlns="http://www.w3.org/2000/svg">
<path fill-rule="evenodd" clip-rule="evenodd" d="M3.15084 6.90507L6.84362 2.52185C7.04431 2.28548 7.11567 2.0122 7.04877 1.73395C6.99079 1.48099 6.82132 1.24047 6.5671 1.05801L5.94718 0.606007C5.40754 0.212057 4.73856 0.253525 4.35501 0.705531L3.94024 1.19942C3.88672 1.26121 3.9001 1.35244 3.967 1.4022C3.967 1.4022 5.01507 2.17352 5.03737 2.1901C5.10873 2.25231 5.16224 2.33524 5.17562 2.43477C5.19792 2.62967 5.05075 2.81213 4.83221 2.83701C4.72964 2.84945 4.63152 2.82042 4.56016 2.76651L3.45857 1.96203C3.40506 1.92512 3.32478 1.933 3.28018 1.98276L0.662234 5.0929C0.492759 5.2878 0.434781 5.54076 0.492759 5.78542L0.82725 7.11656C0.845089 7.18705 0.911987 7.23682 0.992265 7.23682L2.46402 7.22023C2.73161 7.21608 2.98137 7.10412 3.15084 6.90507ZM5.21157 6.49046H7.61143C7.84557 6.49046 8.03601 6.66753 8.03601 6.88524C8.03601 7.10337 7.84557 7.28002 7.61143 7.28002H5.21157C4.97743 7.28002 4.78699 7.10337 4.78699 6.88524C4.78699 6.66753 4.97743 6.49046 5.21157 6.49046Z" fill="#3A36DB"/>
</svg>
