<svg width="16" height="13" viewBox="0 0 16 13" fill="none" xmlns="http://www.w3.org/2000/svg">
<path fill-rule="evenodd" clip-rule="evenodd" d="M11.6192 0.710144C12.6622 0.710144 13.6656 1.07059 14.4037 1.71735C15.1426 2.36275 15.5556 3.23326 15.5556 4.14458V9.51726C15.5556 11.4147 13.79 12.9517 11.6192 12.9517H3.93556C1.76478 12.9517 0 11.4147 0 9.51726V4.14458C0 2.24714 1.757 0.710144 3.93556 0.710144H11.6192ZM12.8567 5.15797L12.9189 5.10357C13.1048 4.90634 13.1048 4.62071 12.9103 4.42348C12.8022 4.32215 12.6537 4.26026 12.4989 4.24666C12.3356 4.23918 12.18 4.28746 12.0626 4.38268L8.55555 6.83099C8.10444 7.15811 7.45811 7.15811 7 6.83099L3.5 4.38268C3.25811 4.22626 2.92366 4.24666 2.72222 4.43028C2.51222 4.61391 2.48889 4.90634 2.667 5.11037L2.76889 5.19878L6.30778 7.61308C6.74333 7.91232 7.27144 8.07554 7.82444 8.07554C8.37589 8.07554 8.91333 7.91232 9.34811 7.61308L12.8567 5.15797Z" fill="#3A36DB"/>
</svg>
