<svg width="14" height="4" viewBox="0 0 14 4" fill="none" xmlns="http://www.w3.org/2000/svg">
<g opacity="0.3">
<path d="M13.4874 1.38536C12.804 0.787784 11.696 0.787784 11.0126 1.38536C10.3291 1.98293 10.3291 2.9518 11.0126 3.54938C11.696 4.14695 12.804 4.14695 13.4874 3.54938C14.1709 2.95183 14.1709 1.98296 13.4874 1.38536Z" fill="#06152B"/>
<path d="M8.23744 1.38536C7.55402 0.787784 6.44598 0.787784 5.76257 1.38536C5.07915 1.98293 5.07915 2.9518 5.76257 3.54938C6.44598 4.14695 7.55402 4.14695 8.23744 3.54938C8.92085 2.95183 8.92085 1.98296 8.23744 1.38536Z" fill="#06152B"/>
<path d="M2.98744 1.38536C2.30402 0.787784 1.19598 0.787784 0.512564 1.38536C-0.170852 1.98293 -0.170852 2.9518 0.512564 3.54938C1.19598 4.14695 2.30402 4.14695 2.98744 3.54938C3.67085 2.95183 3.67085 1.98296 2.98744 1.38536Z" fill="#06152B"/>
</g>
</svg>
