<svg width="19" height="15" viewBox="0 0 19 15" fill="none" xmlns="http://www.w3.org/2000/svg">
<path opacity="0.3" d="M15.191 9.44202C14.9593 9.62682 14.8528 9.8941 14.9056 10.1562L15.701 13.7787C15.7681 14.0858 15.6106 14.3965 15.2983 14.5739C14.9924 14.758 14.5853 14.7801 14.2516 14.6328L10.289 12.932C10.1513 12.8716 9.99828 12.8392 9.84171 12.8356H9.59925C9.51515 12.8459 9.43284 12.8679 9.35769 12.9018L5.39427 14.6107C5.19834 14.6917 4.97646 14.7204 4.75905 14.6917C4.2294 14.6093 3.876 14.194 3.96279 13.7559L4.75905 10.1334C4.81184 9.86906 4.70537 9.60032 4.47365 9.41257L1.24297 6.83557C0.972776 6.61984 0.878835 6.29587 1.0023 6.00357C1.12219 5.712 1.42817 5.49921 1.79767 5.45136L6.24421 4.92049C6.5824 4.89178 6.87943 4.72243 7.03153 4.4721L8.99087 1.16618C9.0374 1.09255 9.09734 1.02481 9.16981 0.967384L9.25033 0.915844C9.29238 0.877557 9.34069 0.845897 9.39437 0.820127L9.49189 0.790676L9.64399 0.739136H10.0206C10.357 0.767851 10.6532 0.933515 10.808 1.18091L12.7933 4.4721C12.9364 4.71286 13.2146 4.88 13.5358 4.92049L17.9824 5.45136C18.3581 5.49553 18.6722 5.70906 18.7965 6.00357C18.9137 6.29882 18.8126 6.62278 18.5371 6.83557L15.191 9.44202Z" fill="#06152B"/>
</svg>
