<svg width="19" height="15" viewBox="0 0 19 15" fill="none" xmlns="http://www.w3.org/2000/svg">
<path d="M15.191 9.49033C14.9593 9.67513 14.8528 9.9424 14.9056 10.2045L15.701 13.827C15.7681 14.1341 15.6106 14.4448 15.2983 14.6222C14.9924 14.8063 14.5853 14.8284 14.2516 14.6811L10.289 12.9803C10.1513 12.9199 9.99828 12.8875 9.84171 12.8839H9.59925C9.51515 12.8942 9.43284 12.9163 9.35769 12.9501L5.39427 14.659C5.19834 14.74 4.97646 14.7687 4.75905 14.74C4.2294 14.6576 3.876 14.2423 3.96279 13.8042L4.75905 10.1817C4.81184 9.91737 4.70537 9.64863 4.47365 9.46087L1.24297 6.88388C0.972776 6.66815 0.878835 6.34418 1.0023 6.05188C1.12219 5.76031 1.42817 5.54752 1.79767 5.49967L6.24421 4.9688C6.5824 4.94009 6.87943 4.77074 7.03153 4.52041L8.99087 1.21449C9.0374 1.14086 9.09734 1.07312 9.16981 1.01569L9.25033 0.964153C9.29238 0.925867 9.34069 0.894206 9.39437 0.868436L9.49189 0.838985L9.64399 0.787445H10.0206C10.357 0.81616 10.6532 0.981824 10.808 1.22922L12.7933 4.52041C12.9364 4.76117 13.2146 4.92831 13.5358 4.9688L17.9824 5.49967C18.3581 5.54384 18.6722 5.75736 18.7965 6.05188C18.9137 6.34713 18.8126 6.67109 18.5371 6.88388L15.191 9.49033Z" fill="#FFD66B"/>
</svg>
